/* XPM */
static const char * red_board[] = {
"70 70 2 1",
" 	c #2A00FF",
".	c #FF3000",
"                            ..............                            ",
"                         ....................                         ",
"                      ..........................                      ",
"                    ..............................                    ",
"                  ..................................                  ",
"                ......................................                ",
"               ........................................               ",
"             ............................................             ",
"            ..............................................            ",
"           ................................................           ",
"          ..................................................          ",
"         ....................................................         ",
"        ......................................................        ",
"       ........................................................       ",
"       ........................................................       ",
"      ..........................................................      ",
"     ............................................................     ",
"     ............................................................     ",
"    ..............................................................    ",
"    ..............................................................    ",
"   ................................................................   ",
"   ................................................................   ",
"  ..................................................................  ",
"  ..................................................................  ",
"  ..................................................................  ",
" .................................................................... ",
" .................................................................... ",
" .................................................................... ",
"......................................................................",
"......................................................................",
"......................................................................",
"......................................................................",
"......................................................................",
"......................................................................",
"......................................................................",
"......................................................................",
"......................................................................",
"......................................................................",
"......................................................................",
"......................................................................",
"......................................................................",
"......................................................................",
" .................................................................... ",
" .................................................................... ",
" .................................................................... ",
"  ..................................................................  ",
"  ..................................................................  ",
"  ..................................................................  ",
"   ................................................................   ",
"   ................................................................   ",
"    ..............................................................    ",
"    ..............................................................    ",
"     ............................................................     ",
"     ............................................................     ",
"      ..........................................................      ",
"       ........................................................       ",
"       ........................................................       ",
"        ......................................................        ",
"         ....................................................         ",
"          ..................................................          ",
"           ................................................           ",
"            ..............................................            ",
"             ............................................             ",
"               ........................................               ",
"                ......................................                ",
"                  ..................................                  ",
"                    ..............................                    ",
"                      ..........................                      ",
"                         ....................                         ",
"                            ..............                            "};
